<svg id="Layer_1" enable-background="new 0 0 512 512" height="512" viewBox="0 0 512 512" width="512" xmlns="http://www.w3.org/2000/svg"><g><path d="m415.853 437.019c-5.858-5.858-5.858-15.355 0-21.213 42.656-42.655 66.147-99.409 66.147-159.806s-23.491-117.151-66.147-159.806c-5.858-5.857-5.858-15.355 0-21.213 5.857-5.858 15.355-5.858 21.213 0 48.322 48.321 74.934 112.608 74.934 181.019s-26.612 132.698-74.934 181.019c-5.848 5.848-15.345 5.868-21.213 0z" fill="#7affe4"/><path d="m370.432 391.6c-5.857-5.858-5.857-15.355 0-21.213 30.533-30.531 47.349-71.155 47.349-114.387s-16.815-83.855-47.349-114.387c-5.858-5.858-5.858-15.355 0-21.213 5.857-5.857 15.355-5.858 21.213 0 36.2 36.198 56.136 84.355 56.136 135.601s-19.936 99.403-56.136 135.601c-5.86 5.858-15.356 5.855-21.213-.002z" fill="#00ddc1"/><path d="m324.979 346.148c-5.858-5.858-5.857-15.356 0-21.213 18.4-18.398 28.533-42.88 28.533-68.934s-10.133-50.536-28.533-68.934c-5.858-5.857-5.858-15.355 0-21.213 5.857-5.857 15.355-5.858 21.213 0 24.066 24.065 37.32 56.08 37.32 90.148s-13.254 66.083-37.32 90.148c-5.858 5.857-15.356 5.854-21.213-.002z" fill="#7affe4"/><path d="m415.853 437.019c5.868 5.868 15.365 5.848 21.213 0 48.322-48.321 74.934-112.608 74.934-181.019h-30c0 60.397-23.491 117.151-66.147 159.806-5.858 5.858-5.858 15.355 0 21.213z" fill="#00ddc1"/><path d="m370.432 391.6c5.856 5.856 15.353 5.859 21.213 0 36.2-36.198 56.136-84.355 56.136-135.601h-30c0 43.232-16.815 83.855-47.349 114.387-5.857 5.859-5.857 15.356 0 21.214z" fill="#00b4bc"/><path d="m324.979 346.148c5.857 5.857 15.354 5.859 21.213 0 24.066-24.065 37.32-56.08 37.32-90.148h-30c0 26.054-10.133 50.536-28.533 68.934-5.857 5.858-5.857 15.355 0 21.214z" fill="#00ddc1"/><path d="m74.934 437.019c-48.322-48.321-74.934-112.608-74.934-181.019s26.612-132.698 74.934-181.019c5.858-5.858 15.355-5.857 21.213 0 5.858 5.858 5.858 15.355 0 21.213-42.656 42.655-66.147 99.409-66.147 159.806s23.491 117.151 66.147 159.806c5.858 5.857 5.858 15.355 0 21.213-5.858 5.859-15.357 5.857-21.213 0z" fill="#7affe4"/><path d="m120.354 391.601c-36.199-36.198-56.135-84.355-56.135-135.601s19.936-99.403 56.136-135.601c5.858-5.857 15.356-5.857 21.213 0 5.857 5.858 5.857 15.355 0 21.213-30.534 30.533-47.349 71.156-47.349 114.388s16.815 83.855 47.349 114.387c5.858 5.858 5.858 15.355 0 21.213-5.85 5.85-15.347 5.866-21.214.001z" fill="#00ddc1"/><path d="m165.807 346.148c-24.066-24.065-37.32-56.08-37.32-90.148s13.254-66.083 37.32-90.148c5.858-5.858 15.356-5.857 21.213 0 5.858 5.858 5.857 15.356 0 21.213-18.4 18.398-28.533 42.88-28.533 68.934s10.133 50.536 28.533 68.934c5.858 5.857 5.858 15.355 0 21.213-5.85 5.852-15.347 5.867-21.213.002z" fill="#7affe4"/><path d="m96.147 437.019c5.858-5.858 5.858-15.355 0-21.213-42.656-42.655-66.147-99.409-66.147-159.806h-30c0 68.411 26.612 132.698 74.934 181.019 5.856 5.857 15.355 5.859 21.213 0z" fill="#00ddc1"/><path d="m141.568 391.6c5.857-5.858 5.857-15.355 0-21.213-30.534-30.531-47.349-71.155-47.349-114.387h-30c0 51.246 19.936 99.403 56.136 135.601 5.866 5.865 15.363 5.849 21.213-.001z" fill="#00b4bc"/><path d="m187.021 346.148c5.858-5.858 5.857-15.356 0-21.213-18.4-18.398-28.533-42.88-28.533-68.934h-30c0 34.068 13.254 66.083 37.32 90.148 5.865 5.864 15.362 5.849 21.213-.001z" fill="#00ddc1"/><circle cx="256" cy="256" fill="#00ddc1" r="63.2"/><path d="m256 319.2c34.849 0 63.2-28.352 63.2-63.2h-126.4c0 34.849 28.351 63.2 63.2 63.2z" fill="#00b4bc"/></g></svg>